HIERARCHY
ROOT Hips
{
	OFFSET 0.000000 0.000000 0.000000
	CHANNELS 6 Xposition Yposition Zposition Zrotation Yrotation Xrotation 
	JOINT LHipJoint
	{
		OFFSET 0.000000 0.000000 0.000000
		CHANNELS 3 Zrotation Yrotation Xrotation
		JOINT LeftUpLeg
		{
			OFFSET 1.363060 -1.794630 0.839290
			CHANNELS 3 Zrotation Yrotation Xrotation
			JOINT LeftLeg
			{
				OFFSET 2.448110 -6.726130 0.000000
				CHANNELS 3 Zrotation Yrotation Xrotation
				JOINT LeftFoot
				{
					OFFSET 2.562200 -7.039590 0.000000
					CHANNELS 3 Zrotation Yrotation Xrotation
					JOINT LeftToeBase
					{
						OFFSET 0.157640 -0.433110 2.322550
						CHANNELS 3 Zrotation Yrotation Xrotation
						End Site
						{
							OFFSET 0.000000 0.000000 0.000000
						}
					}
				}
			}
		}
	}
	JOINT RHipJoint
	{
		OFFSET 0.000000 0.000000 0.000000
		CHANNELS 3 Zrotation Yrotation Xrotation
		JOINT RightUpLeg
		{
			OFFSET -1.305520 -1.794630 0.839290
			CHANNELS 3 Zrotation Yrotation Xrotation
			JOINT RightLeg
			{
				OFFSET -2.542530 -6.985550 0.000000
				CHANNELS 3 Zrotation Yrotation Xrotation
				JOINT RightFoot
				{
					OFFSET -2.568260 -7.056230 0.000000
					CHANNELS 3 Zrotation Yrotation Xrotation
					JOINT RightToeBase
					{
						OFFSET -0.164730 -0.452590 2.363150
						CHANNELS 3 Zrotation Yrotation Xrotation
						End Site
						{
							OFFSET 0.000000 0.000000 0.000000
						}
					}
				}
			}
		}
	}
	JOINT LowerBack
	{
		OFFSET 0.000000 0.000000 0.000000
		CHANNELS 3 Zrotation Yrotation Xrotation
		JOINT Spine
		{
			OFFSET 0.028270 2.035590 -0.193380
			CHANNELS 3 Zrotation Yrotation Xrotation
			JOINT Spine1
			{
				OFFSET 0.056720 2.048850 -0.042750
				CHANNELS 3 Zrotation Yrotation Xrotation
				JOINT Neck
				{
					OFFSET 0.000000 0.000000 0.000000
					CHANNELS 3 Zrotation Yrotation Xrotation
					JOINT Neck1
					{
						OFFSET -0.054170 1.746240 0.172020
						CHANNELS 3 Zrotation Yrotation Xrotation
						JOINT Head
						{
							OFFSET 0.104070 1.761360 -0.123970
							CHANNELS 3 Zrotation Yrotation Xrotation
							End Site
							{
								OFFSET 0.000000 0.000000 0.000000
							}
						}
					}
				}
				JOINT LeftShoulder
				{
					OFFSET 0.000000 0.000000 0.000000
					CHANNELS 3 Zrotation Yrotation Xrotation
					JOINT LeftArm
					{
						OFFSET 3.362410 1.200890 -0.311210
						CHANNELS 3 Zrotation Yrotation Xrotation
						JOINT LeftForeArm
						{
							OFFSET 4.983000 -0.000000 -0.000000
							CHANNELS 3 Zrotation Yrotation Xrotation
							JOINT LeftHand
							{
								OFFSET 3.483560 -0.000000 -0.000000
								CHANNELS 3 Zrotation Yrotation Xrotation
								JOINT LeftFingerBase
								{
									OFFSET 0.000000 0.000000 0.000000
									CHANNELS 3 Zrotation Yrotation Xrotation
									JOINT LeftHandIndex1
									{
										OFFSET 0.715260 -0.000000 -0.000000
										CHANNELS 3 Zrotation Yrotation Xrotation
										End Site
										{
											OFFSET 0.000000 0.000000 0.000000
										}
									}
								}
								JOINT LThumb
								{
									OFFSET 0.000000 0.000000 0.000000
									CHANNELS 3 Zrotation Yrotation Xrotation
									End Site
									{
										OFFSET 0.000000 0.000000 0.000000
									}
								}
							}
						}
					}
				}
				JOINT RightShoulder
				{
					OFFSET 0.000000 0.000000 0.000000
					CHANNELS 3 Zrotation Yrotation Xrotation
					JOINT RightArm
					{
						OFFSET -3.136600 1.374050 -0.404650
						CHANNELS 3 Zrotation Yrotation Xrotation
						JOINT RightForeArm
						{
							OFFSET -5.241900 -0.000000 -0.000000
							CHANNELS 3 Zrotation Yrotation Xrotation
							JOINT RightHand
							{
								OFFSET -3.444170 -0.000000 -0.000000
								CHANNELS 3 Zrotation Yrotation Xrotation
								JOINT RightFingerBase
								{
									OFFSET 0.000000 0.000000 0.000000
									CHANNELS 3 Zrotation Yrotation Xrotation
									JOINT RightHandIndex1
									{
										OFFSET -0.622530 -0.000000 -0.000000
										CHANNELS 3 Zrotation Yrotation Xrotation
										End Site
										{
											OFFSET 0.000000 0.000000 0.000000
										}
									}
								}
								JOINT RThumb
								{
									OFFSET 0.000000 0.000000 0.000000
									CHANNELS 3 Zrotation Yrotation Xrotation
									End Site
									{
										OFFSET 0.000000 0.000000 0.000000
									}
								}
							}
						}
					}
				}
			}
		}
	}
}
MOTION
Frames: 6
Frame Time: 0.008333
1.058614 16.676394 -1.690419 -171.076321 63.945920 -158.972924 -9.229815 0.104558 -0.560957 -21.326253 11.475545 -46.174950 -2.694139 0.704557 24.834807 3.164170 15.017336 -9.432488 0.198800 0.000000 -6.523299 11.050593 -3.112862 -2.946740 -2.982594 -17.093141 -7.557577 0.308674 -2.921274 39.813806 -0.328617 7.166388 20.690242 3.515200 0.000000 -86.783901 -8.172092 0.586095 4.865631 -2.450225 0.991219 -1.814739 -5.758857 0.996309 1.435193 5.725234 -3.606131 -6.786902 -2.825216 -0.215852 0.031939 0.000000 0.000000 0.000000 -8.016778 15.897897 2.252817 -69.175147 18.555306 -1.460606 -4.258548 -21.034892 -0.028043 -11.159610 9.638654 -0.946929 -0.067952 -0.082937 -0.000000 0.000000 0.000000 0.000000 0.000000 0.000000 0.000000 9.417824 0.921189 1.449098 33.959479 29.327879 3.553493 1.241470 58.812867 0.038274 12.820744 7.329786 0.866853 -0.171345 -0.273836 0.000000 0.000000 0.000000 0.000000 0.000000 0.000000 0.000000 
1.167046 16.685481 -1.789136 -171.754828 63.162367 -159.607671 -9.210995 0.156134 -0.550651 -21.366739 10.756888 -45.485798 -2.638001 0.725169 25.393289 3.192831 15.094381 -9.894699 0.047700 -0.000000 -5.553100 11.146504 -2.939998 -3.010080 -3.232210 -16.909654 -8.760718 0.090563 -3.061326 42.648740 -0.546677 5.603013 21.425513 2.962300 -0.000000 -84.061300 -8.260092 0.498658 5.009764 -2.464427 0.906714 -1.796973 -5.750272 0.911329 1.388724 5.594663 -3.656598 -6.707153 -2.848232 -0.217740 0.047737 0.000000 0.000000 0.000000 -7.987161 15.395124 2.290589 -68.892456 17.247441 -0.942827 -4.237329 -21.646168 -0.026290 -11.103802 9.472137 -0.925174 -0.068050 -0.075576 -0.000000 0.000000 0.000000 0.000000 0.000000 0.000000 0.000000 9.322202 0.827481 1.411923 35.077316 28.501612 4.372378 1.247831 59.624109 0.038092 12.836557 7.370513 0.872254 -0.168831 -0.271788 0.000000 0.000000 0.000000 0.000000 0.000000 0.000000 0.000000 
1.270889 16.696157 -1.889372 -172.334132 62.318156 -160.147882 -9.201722 0.192684 -0.532448 -21.360677 9.989795 -44.679182 -2.581446 0.721896 25.771708 3.230856 15.199699 -10.416213 -0.122100 0.000000 -4.715800 11.217799 -2.759839 -3.089460 -3.371412 -16.687188 -9.964963 -0.110143 -3.200044 45.427194 -0.777344 3.633054 21.759853 2.147101 0.000000 -81.265699 -8.255191 0.420313 5.163759 -2.459324 0.828131 -1.774909 -5.740502 0.832422 1.350259 5.448604 -3.722592 -6.623512 -2.871244 -0.219615 0.064599 0.000000 0.000000 0.000000 -7.976933 14.906674 2.318987 -68.572711 15.855082 -0.356338 -4.209111 -22.390470 -0.024349 -10.987818 9.248540 -0.893012 -0.067948 -0.068111 -0.000000 0.000000 0.000000 0.000000 0.000000 0.000000 0.000000 9.216059 0.709610 1.372933 36.156713 27.634194 5.226219 1.253715 60.374416 0.037706 12.834660 7.413648 0.876554 -0.166042 -0.269023 0.000000 0.000000 0.000000 0.000000 0.000000 0.000000 0.000000 
1.370827 16.708762 -1.991209 -172.810989 61.430337 -160.590001 -9.202527 0.215458 -0.508510 -21.311994 9.200936 -43.779292 -2.526431 0.698825 25.983522 3.272115 15.311267 -10.965327 -0.302400 0.000000 -4.010500 11.265994 -2.578808 -3.175632 -3.404664 -16.407468 -11.166860 -0.294867 -3.337966 48.113274 -1.017160 1.367486 21.698317 1.145400 0.000000 -78.465300 -8.165274 0.352426 5.316811 -2.437064 0.757308 -1.750844 -5.732032 0.761304 1.319992 5.298331 -3.796824 -6.535268 -2.894272 -0.221500 0.082870 0.000000 0.000000 0.000000 -7.984555 14.445652 2.336930 -68.217346 14.394354 0.293867 -4.174726 -23.289901 -0.022284 -10.821770 8.969435 -0.852144 -0.067669 -0.060666 -0.000000 0.000000 0.000000 0.000000 0.000000 0.000000 0.000000 9.110337 0.576416 1.332679 37.199168 26.724779 6.114273 1.260498 61.050015 0.037131 12.825088 7.453166 0.879756 -0.163043 -0.265368 0.000000 0.000000 0.000000 0.000000 0.000000 0.000000 0.000000 
1.467505 16.723672 -2.094532 -173.189444 60.515433 -160.936440 -9.213691 0.226323 -0.481385 -21.225936 8.416562 -42.812216 -2.474667 0.660377 26.045905 3.310498 15.407247 -11.511031 -0.484299 -0.000000 -3.434000 11.292989 -2.402421 -3.258383 -3.338610 -16.050801 -12.363192 -0.465049 -3.473737 50.667440 -1.261598 -1.057331 21.279814 0.055300 0.000001 -75.812101 -8.001742 0.295130 5.458694 -2.400516 0.694930 -1.726757 -5.727601 0.698583 1.298342 5.156136 -3.878074 -6.443088 -2.917589 -0.223423 0.102515 0.000000 0.000000 0.000000 -8.006691 14.020372 2.343469 -67.828666 12.885826 1.003629 -4.135102 -24.365847 -0.020170 -10.620487 8.639993 -0.804772 -0.067253 -0.053369 -0.000000 0.000000 0.000000 0.000000 0.000000 0.000000 0.000000 9.019954 0.430304 1.292454 38.204508 25.785580 7.040621 1.269857 61.631292 0.036381 12.812757 7.485870 0.881957 -0.159817 -0.260720 0.000000 0.000000 0.000000 0.000000 0.000000 0.000000 0.000000 
1.561593 16.741183 -2.199203 -173.478415 59.587068 -161.193770 -9.235171 0.227614 -0.453523 -21.108300 7.659867 -41.804062 -2.427556 0.610943 25.978723 3.340495 15.467806 -12.026139 -0.658500 -0.000000 -2.980600 11.301049 -2.235161 -3.327737 -3.183713 -15.599168 -13.551144 -0.621800 -3.604980 53.055138 -1.503632 -3.491545 20.564244 -1.020300 0.000000 -73.378800 -7.777722 0.247579 5.580407 -2.352740 0.640668 -1.704622 -5.729436 0.643860 1.284441 5.031844 -3.961493 -6.346532 -2.941197 -0.225407 0.123802 0.000000 0.000000 0.000000 -8.036389 13.634354 2.338935 -67.410358 11.351038 1.770629 -4.091224 -25.632903 -0.018067 -10.401020 8.267635 -0.753396 -0.066761 -0.046292 -0.000000 0.000000 0.000000 0.000000 0.000000 0.000000 0.000000 8.954612 0.277624 1.253187 39.180161 24.821993 8.002808 1.283422 62.101737 0.035485 12.806431 7.506750 0.882958 -0.156401 -0.254990 0.000000 0.000000 0.000000 0.000000 0.000000 0.000000 0.000000 
